inDegrees=no
num_controls=7
num_derivatives=13
num_iterations=200
num_multipliers=7
num_parameters=0
num_slacks=7
num_states=26
objective=5.972896
objective_accelerations=0.793589
objective_balance=0.007142
objective_effort=0.532598
objective_height=4.524325
objective_ligament=0.115242
solver_duration=1666.525891
status=Solve_Succeeded
success=true
DataType=double
version=3
OpenSimVersion=4.4-2022-07-23-0e9fedc
endheader
time	/jointset/ground_pelvis/pelvis_tilt/value	/jointset/ground_pelvis/pelvis_tx/value	/jointset/ground_pelvis/pelvis_ty/value	/jointset/hip_r/hip_flexion_r/value	/jointset/hip_r/hip_adduction_r/value	/jointset/hip_r/hip_rotation_r/value	/jointset/back/lumbar_extension/value	/jointset/patellofemoral_r/patellar_flexion_r/value	/jointset/knee_r/knee_flexion_r/value	/jointset/knee_r/knee_adduction_r/value	/jointset/knee_r/knee_rotation_r/value	/jointset/ankle_r/ankle_angle_r/value	/jointset/subtalar_r/subtalar_angle_r/value	/jointset/ground_pelvis/pelvis_tilt/speed	/jointset/ground_pelvis/pelvis_tx/speed	/jointset/ground_pelvis/pelvis_ty/speed	/jointset/hip_r/hip_flexion_r/speed	/jointset/hip_r/hip_adduction_r/speed	/jointset/hip_r/hip_rotation_r/speed	/jointset/back/lumbar_extension/speed	/jointset/patellofemoral_r/patellar_flexion_r/speed	/jointset/knee_r/knee_flexion_r/speed	/jointset/knee_r/knee_adduction_r/speed	/jointset/knee_r/knee_rotation_r/speed	/jointset/ankle_r/ankle_angle_r/speed	/jointset/subtalar_r/subtalar_angle_r/speed	/forceset/tau_hip_flexion_r	/forceset/tau_hip_adduction_r	/forceset/tau_hip_rotation_r	/forceset/tau_knee_flexion_r	/forceset/tau_ankle_angle_r	/forceset/tau_subtalar_angle_r	/forceset/tau_lumbar_extension	lambda_cid13_p0	lambda_cid14_p0	lambda_cid14_p1	lambda_cid14_p2	lambda_cid14_p3	lambda_cid14_p4	lambda_cid14_p5	/jointset/ground_pelvis/pelvis_tilt/accel	/jointset/ground_pelvis/pelvis_tx/accel	/jointset/ground_pelvis/pelvis_ty/accel	/jointset/hip_r/hip_flexion_r/accel	/jointset/hip_r/hip_adduction_r/accel	/jointset/hip_r/hip_rotation_r/accel	/jointset/back/lumbar_extension/accel	/jointset/patellofemoral_r/patellar_flexion_r/accel	/jointset/knee_r/knee_flexion_r/accel	/jointset/knee_r/knee_adduction_r/accel	/jointset/knee_r/knee_rotation_r/accel	/jointset/ankle_r/ankle_angle_r/accel	/jointset/subtalar_r/subtalar_angle_r/accel	gamma_cid13_p0	gamma_cid14_p0	gamma_cid14_p1	gamma_cid14_p2	gamma_cid14_p3	gamma_cid14_p4	gamma_cid14_p5
0	0.007865875954628197	0.1238244723306909	0.9353171110342865	0.1934208783645156	-0.2021131349084794	-0.2352561924401602	-0.2903791543005566	0.2311793314021651	0.2311793314021609	0.07664899911620758	0.1512682487773419	0.08934340440958972	0.09616405550193466	0	0	0	0	0	0	0	0	0	0	0	0	0	0.1195239356612216	-0.05336182208664014	0.001144134328736177	-0.2394471564755968	0.1089547317207243	-0.04430460091055297	-0.04001991906698937	-29.13869458229204	-8.995665807446827	-17.42248384191048	-0.6773020295482224	10.26664035684534	-601.8460724570596	61.74139769062904	-2.436717930907808	-2.228262964824495	-1.046210815831913	11.78412708939602	-0.1415662797448478	1.819901521084072	-6.766429267908495	11.64673912862153	11.64673912862142	-2.754468397818259	0.8654934194386875	2.933099518625005	0.7325105211820275	2.381029957373162e-08	1.606084830796695e-08	-2.187073181087628e-07	1.369814120294979e-07	4.556059103779724e-09	1.518759742840546e-07	-1.675546486499181e-07
0.01	0.00775161522016911	0.1237146401797223	0.9352662435898913	0.1939936912705362	-0.2021193753177703	-0.2351647203997904	-0.2907198594635082	0.2317501265886129	0.2317501265886215	0.0765127586329182	0.1513079952886697	0.0894871103349594	0.09620077565998446	-0.02275905134592459	-0.02183838132093701	-0.01014538035845584	0.1140193271449377	-0.001254482632583184	0.01822041708073964	-0.06768223428014918	0.1136400367622571	0.1136400367622573	-0.02709295100111424	0.007893889978771662	0.02863866711858007	0.007305577686625692	0.1153547908113799	-0.05666533240816544	0.001291212693921438	-0.2364045687441823	0.1049186589809845	-0.03997848641202256	-0.03609663302648868	-29.14648308685345	-10.08358981733456	-15.60301174992778	-1.117156230340254	9.913215661373501	-603.539394290774	65.26305275656668	-2.181537792142154	-2.142417473694267	-0.99445499256311	11.1293463076405	-0.1183602907894658	1.812043752342221	-6.700300761411523	11.14478110884173	11.14478110884184	-2.663460262807449	0.7430534574686926	2.81387805800549	0.7237950507730605	3.04988549176554e-08	-7.998487754485174e-09	-2.771883652801704e-07	9.347932812930438e-08	2.9404991509157e-08	-2.695879640092552e-08	-1.536831958431923e-07
0.02	0.007412556161105618	0.1233902658639512	0.9351147716725692	0.1956903996041217	-0.2021383547605394	-0.234893257798455	-0.2917236230199315	0.2334417511744531	0.2334417511744546	0.07611023827729192	0.1514250240338494	0.08991412848142218	0.09630939432657454	-0.04495966492012192	-0.04290843296051184	-0.02012089458540133	0.2247790855137946	-0.002547806696134759	0.03599811219241282	-0.132611678694029	0.2241658798770721	0.2241658798770723	-0.05325597446420212	0.01545644677243536	0.05666244421839977	0.01437970170805851	0.1111856459615053	-0.05996884272971382	0.00143829105904675	-0.2333619810127923	0.1008825862412271	-0.0356523719135254	-0.03217334698599951	-29.16922671790142	-11.0799983768204	-13.77971023643867	-1.543690824707565	9.564562710547543	-603.7913466476308	68.56693651321444	-2.325030376562289	-2.074597028552092	-1.012237589529843	11.13221333417986	-0.1493345659385331	1.731357127270784	-6.215871294654591	11.02390039913316	11.023900399133	-2.568482890212981	0.7992267824171023	2.810121514872906	0.6862197881434381	3.718741026157919e-08	-3.20578238169373e-08	-3.356694124515781e-07	4.997724422911088e-08	5.425392391453428e-08	-2.057935670859056e-07	-1.398117430364664e-07
0.03	0.00685375950062363	0.1228589967062159	0.9348640070897851	0.1984791543065749	-0.202170560366269	-0.2344465828717876	-0.2933625046642653	0.2362232280739212	0.2362232280739158	0.07545095772626528	0.1516161935770031	0.09061819659710649	0.09648746427316673	-0.06670517149603739	-0.06321958718139012	-0.03003294014942342	0.3324333213807144	-0.003892608717135808	0.05324259226486969	-0.1947226978826131	0.3316033445642527	0.331603344564252	-0.07845230734406085	0.02271170242742968	0.08403797849951671	0.02120349953259931	0.1063885456363102	-0.05693535662551173	0.001573341755148093	-0.2304043754309553	0.09822624725569344	-0.03607672238797879	-0.02796054507111054	-29.20584528232201	-11.93454874311291	-14.08042306988836	-1.533681234214545	9.27658715311437	-603.9600075046779	67.26454927352952	-2.085133365375431	-1.990491956974381	-0.9808676478120488	10.50124760914315	-0.1269814984143831	1.706871740414355	-6.142424387332149	10.5247387214178	10.5247387214178	-2.47308296704556	0.6788265503999531	2.684295617546466	0.6757952611049196	3.864719674821165e-08	-5.145394118035275e-08	-3.563294882167409e-07	-3.154277287069921e-08	7.145543843383937e-08	-3.561054018894256e-07	-8.570878731354857e-08
0.04	0.006080343260924967	0.1221283925386481	0.9345140861297657	0.2023282951469332	-0.2022161996878556	-0.2338302874857586	-0.2956092379317607	0.2400632934638301	0.2400632934638311	0.07454413895039909	0.1518779459954012	0.09159262530216522	0.09673283929430342	-0.08788358076270514	-0.08277543492701997	-0.0399521700324592	0.4368563130954408	-0.0052345498674758	0.06992220406457345	-0.254182003326066	0.4358835779677259	0.4358835779677251	-0.1027636194308475	0.02957302181679578	0.1107345620932498	0.02784071661696034	0.1015914453111001	-0.05390187052131008	0.001708392451382156	-0.2274467698491353	0.09556990827015245	-0.03650107286243703	-0.02374774315622762	-29.25471422620088	-12.70594005520467	-14.37885837676244	-1.510003458259608	8.981324374594195	-602.8230893265633	65.76882721991572	-2.211610914712684	-1.923535733502437	-1.01367445333258	10.4859645037412	-0.1487623918063267	1.618383472720168	-5.685528545628321	10.3924541423917	10.3924541423917	-2.391478731598554	0.7204395292914663	2.674331377396113	0.6489036401074714	3.999917356768347e-08	-7.075390970461281e-08	-3.76209750138476e-07	-1.138466648818416e-07	8.8499274233844e-08	-5.058291349221939e-07	-3.077631606658549e-08
